<?xml version="1.0" encoding="utf-8"?>
<!-- Generator: Adobe Illustrator 24.2.3, SVG Export Plug-In . SVG Version: 6.00 Build 0)  -->
<svg version="1.1" id="Layer_1" xmlns="http://www.w3.org/2000/svg" xmlns:xlink="http://www.w3.org/1999/xlink" x="0px" y="0px"
	 viewBox="0 0 836.1 361.9" style="enable-background:new 0 0 836.1 361.9;" xml:space="preserve">
<style type="text/css">
	.st0{fill:#FFFFFF;}
</style>
<g id="Logo_2_">
	<g>
		<path class="st0" d="M386.7,149.6l11.4-8c3.1,5,7.6,7.3,13.8,7.3c6.7,0,11.2-2.7,11.2-6.5c0-5.2-8.5-9.3-15.9-13
			c-8-4-16.7-8.3-16.7-19.6c0-12.3,10.4-20.4,23.4-20.4c9.7,0,17.7,4,20.9,12.6l-10.5,7.3c-2.1-4.2-6.2-5.9-10.2-5.9
			c-5.3,0-9.3,3.1-9.3,6.7c0,4.2,5.4,5.7,13.5,9.5c11.7,5.5,19.1,11.5,19.1,22.4c0,12.9-10.6,21.1-25.7,21.1
			C400,163.3,391.5,158.4,386.7,149.6z"/>
		<path class="st0" d="M508,150c2.3,0.7,4.8,1.1,7.8,1.3l-1.1,13.9c-7.7-0.5-13.5-2.9-18.2-6.1c-5.1,2.6-10.8,4.1-16.8,4.1
			c-20.2,0-36.8-16.5-36.8-36.7c0-20.4,16.6-37,36.8-37s36.9,16.6,36.9,37C516.6,135.4,513.4,143.6,508,150z M479.7,148.8
			c1.7,0,3.4-0.2,5-0.6c-4.6-4.9-9-9-15.3-9.5l0.7-12.2c13.6,1,18.6,9,25.5,15.7c4.1-4,6.6-9.7,6.6-15.8c0-12.4-10.1-22.5-22.5-22.5
			c-12.4,0-22.4,10.1-22.4,22.5C457.3,138.7,467.3,148.8,479.7,148.8z"/>
		<path class="st0" d="M525.2,135.7V91h14.3v44.6c0,7.7,6.1,13.4,13,13.4c6.9,0,13.1-5.7,13.1-13.4V91h14.3v44.7
			c0,16-12.3,27.7-27.3,27.7C537.5,163.4,525.2,151.7,525.2,135.7z"/>
		<path class="st0" d="M591.6,91h14.2v70.9h-14.2V91z"/>
		<path class="st0" d="M655,161.9l-22.6-33.5v33.5h-14.2l0-70.9h23.1c13.2,0,24.1,10.2,24.1,22.9c0,9.1-5.5,17.1-13.1,19.7
			l20.1,28.2H655z M632.4,122.9l9.1,0c4.8,0,9.1-3.9,9.1-8.9s-4.4-8.9-9.1-8.9h-9.1V122.9z"/>
		<path class="st0" d="M716,161.9l-22.6-33.5v33.5h-14.2l0-70.9h23.1c13.2,0,24.1,10.2,24.1,22.9c0,9.1-5.5,17.1-13.1,19.7
			l20.1,28.2H716z M693.4,122.9l9.1,0c4.8,0,9.1-3.9,9.1-8.9s-4.4-8.9-9.1-8.9h-9.1V122.9z"/>
		<path class="st0" d="M754.4,105v13.8h24.4v14.2h-24.4v14.6h28.5v14.2h-42.7V91h42.7v14H754.4z"/>
		<path class="st0" d="M836.1,147.7v14.2h-42.7V91h14.2v56.7H836.1z"/>
	</g>
	<g>
		<path class="st0" d="M415.3,195.6H388v-14.1h49.9l-27.3,56.7h27.3v14.2H388L415.3,195.6z"/>
		<path class="st0" d="M442.4,217c0-20.4,16.6-37,36.8-37s36.9,16.6,36.9,37c0,20.2-16.6,36.7-36.9,36.7
			C458.9,253.7,442.4,237.2,442.4,217z M501.7,216.9c0-12.4-10.1-22.5-22.5-22.5c-12.4,0-22.4,10.1-22.4,22.5
			c0,12.3,10.1,22.4,22.4,22.4C491.6,239.3,501.7,229.2,501.7,216.9z"/>
		<path class="st0" d="M582.3,181.3v72.4h-0.7l-42.1-40.9v39.7h-14.2v-72.3h0.7l42,40.8v-39.7H582.3z"/>
		<path class="st0" d="M608.8,195.5v13.8h24.4v14.2h-24.4v14.6h28.5v14.2h-42.7v-70.9h42.7v14H608.8z"/>
	</g>
	<g>
		<path class="st0" d="M182.1,0c-0.4,0-0.8,0-1.2,0C81,0,0,81,0,180.9s81,180.9,180.9,180.9c0.4,0,0.8,0,1.2,0
			c99.4-0.7,179.7-81.4,179.7-180.9S281.5,0.7,182.1,0z M203.4,55.3c0.8-0.4,1.6-0.8,2.5-1.2c6.9-3.1,15-4.4,23-4.4
			c15.4,0,30.7,4.6,37.5,10.4c10.5,8.7,16.6,33.5,1.1,37.8c-2.2,0.6-4.2,0.9-6.1,0.9c-8.2,0-13.1-5-15.1-7.8c0.1-0.5,0.3-1,0.4-1.6
			c0.1-0.3,0.2-0.7,0.3-1c0.1-0.3,0.2-0.7,0.3-1.1c0.2-0.7,0.5-1.7,1-2.9c0.5-1.2,1.1-2.5,1.9-3.8c0.2-0.3,0.4-0.6,0.7-1
			c0.2-0.3,0.5-0.6,0.8-0.9c0.1-0.1,0.3-0.3,0.4-0.4l0.2-0.2c0.1-0.1,0.2-0.1,0.2-0.2c0.2-0.1,0.3-0.3,0.5-0.4
			c0.2-0.1,0.3-0.2,0.5-0.4c0.3-0.3,0.7-0.4,1.1-0.6c0.2-0.1,0.4-0.2,0.6-0.3c0.2-0.1,0.4-0.2,0.6-0.2c0.8-0.3,1.7-0.5,2.6-0.5
			c0.9-0.1,1.8,0,2.7,0.2c0.9,0.2,1.6,0.5,2.2,0.9c0.6,0.4,1,0.9,1.3,1.5c0.1,0.3,0.3,0.6,0.3,1c0,0.2,0.1,0.4,0.1,0.6
			c0,0.2,0,0.4,0,0.6c0,1.7-0.5,3.3-1.4,4.5c-0.2,0.3-0.5,0.6-0.7,0.8c-0.3,0.3-0.6,0.5-0.9,0.7c-0.6,0.4-1.2,0.7-1.8,0.9
			c-0.3,0.1-0.6,0.1-0.9,0.2c-0.1,0-0.3,0-0.4,0c-0.1,0-0.1,0-0.2,0c-0.1,0-0.1,0-0.1,0c-0.3,0-0.6-0.1-1-0.2
			c-0.7-0.3-1.3-0.7-1.8-1c-0.5-0.3-0.9-0.4-1.3-0.5c-0.4-0.1-0.7,0-0.9,0.1c-0.2,0.1-0.5,0.3-0.6,0.8c-0.1,0.4-0.2,1.1,0.1,2
			c0.1,0.4,0.3,1,0.7,1.5c0.4,0.5,0.8,1.1,1.6,1.7c0.4,0.3,0.8,0.5,1.3,0.7c0.3,0.1,0.5,0.2,0.8,0.3c0.3,0.1,0.6,0.1,0.8,0.2
			c0.5,0.1,1.1,0.1,1.7,0.1c0.6,0,1.2-0.1,1.7-0.3c1-0.3,2.1-0.7,3-1.3c0.5-0.3,1-0.7,1.4-1c0.2-0.2,0.4-0.4,0.7-0.6
			c0.2-0.2,0.4-0.5,0.7-0.7c1.7-2,2.8-4.6,2.9-7.4c0-0.7,0-1.4-0.1-2.1c0-0.4-0.1-0.7-0.2-1.1c-0.1-0.4-0.2-0.8-0.3-1.1
			c-0.3-0.8-0.6-1.5-1.1-2.2c-0.5-0.7-1-1.3-1.7-1.8c-1.3-1.1-2.7-1.7-4.2-2.1c-1.4-0.4-2.9-0.5-4.3-0.4c-1.4,0.1-2.7,0.4-4,0.8
			c-0.3,0.1-0.6,0.2-1,0.4c-0.3,0.2-0.6,0.3-0.9,0.4c-0.1,0.1-0.3,0.1-0.4,0.2l-0.4,0.3c-0.3,0.2-0.6,0.3-0.8,0.5
			c-2.1,1.5-3.5,3.5-4.5,5.2c-1,1.8-1.6,3.4-2.1,4.8c-0.4,1.4-0.7,2.5-0.9,3.2c-0.2,0.7-0.3,1.4-0.4,2.1c-0.1,0.7-0.2,1.3-0.2,1.8
			c0,0.2,0,0.4,0,0.6c0,0.1,0,0.1,0,0.2c-0.1,0.8-0.1,1.6-0.1,2.2c0,0.5,0.1,0.9,0.1,1.3c0,0.1,0,0.2,0,0.4l-4.1-5.9l-31.7-8.9
			l-7.1,2.2v-6.6c3.4-0.6,6.3-3.6,7.2-7.5c1.2-5.2-1.4-10.2-5.8-11.2c-0.4-0.1-0.7-0.1-1.1-0.2C201.3,56.3,202.3,55.8,203.4,55.3z
			 M241.7,272l-59.5-81.5v-5.1v-2.5v-2.5V70.4v-3.2v-3.1V46.6c-0.4,0-0.8,0-1.2,0l0,0h0c-0.8,0-1.5,0.1-2.3,0.2
			c-0.8,0.1-1.6,0.3-2.3,0.5c-5.7,1.6-9.8,5.7-9.8,5.7v6.6c-1-0.4-2.1-0.6-3.1-0.3c-3.2,0.7-5,4.5-4.1,8.4c0.9,3.9,4.1,6.4,7.3,5.8
			V84v1.4l-0.6-0.2l-8.8-2.8L126.9,91l-32,45.7l31.6,41h16.6l-19.6-38l14.3-18.3l24.1,36.7L77.8,279.2l44.8-7.3l53.7-73.5l2.3-3.1
			l2.3-3.1h0l1.2-1.7v3.9v3.9v143.8c-0.4,0-0.8,0-1.2,0c-89,0-161.2-72.2-161.2-161.2c0-89,72.2-161.2,161.2-161.2
			c0.4,0,0.8,0,1.2,0V42v2.3v2.3c7.6-0.3,15.6-3,15.6-3v9.4v0v2.6v2.7v1.3c0.7-0.3,1.4-0.5,2.1-0.5c0.3,0,0.7,0,1,0.1
			c3.2,0.7,5,4.5,4.1,8.4c-0.8,3.5-3.5,5.9-6.3,5.9c-0.3,0-0.6,0-1-0.1v12l9.4-3l30.3,8.5l5.8,8.2l1.8,2.6l1.8,2.6l22.6,32.3
			l-31.6,41h-16.6l19.6-38l-3.9-5.1l-1.6-2l-1.6-2l-7.2-9.3L202.4,158l4.2,6.1l1.3,1.9l1.3,1.9l77.2,111.3L241.7,272z M210.1,161.1
			c-0.6,0.5-1.2,1-1.7,1.5l-3.2-4.6l21.5-32.7l5.9,7.6c-0.4,0.7-0.8,1.5-1.2,2.2C225.4,145.6,217.7,154.2,210.1,161.1z"/>
	</g>
</g>
</svg>
