<svg xmlns="http://www.w3.org/2000/svg" width="1009.4" height="1009.4" overflow="visible">
  <path d="M508.1 0h-3.4C226 0 0 226 0 504.7s226 504.7 504.7 504.7h3.4c277.2-1.8 501.3-227 501.3-504.7S785.3 1.9 508.1 0zm59.2 154.2c2.3-1.1 4.5-2.2 6.8-3.2 19.1-8.6 41.7-12.2 64.3-12.2 42.8 0 85.6 12.9 104.7 28.9 29.2 24.4 46.4 93.4 3 105.3-6.1 1.7-11.8 2.4-16.9 2.4-22.8 0-36.4-14-42.2-21.7.4-1.4.8-2.9 1.2-4.4.2-.9.5-1.8.7-2.8.3-1 .5-2 .8-3 .6-2.1 1.4-4.9 2.7-8.1 1.3-3.2 2.9-6.9 5.3-10.5.5-.9 1.2-1.8 1.9-2.7.7-.9 1.4-1.7 2.1-2.6l1.2-1.2.6-.6.6-.6c.4-.4.9-.7 1.3-1.1.4-.4.9-.7 1.4-1 .9-.7 2-1.2 3-1.8.5-.3 1.1-.5 1.6-.7.5-.2 1.1-.5 1.6-.7 2.2-.8 4.7-1.3 7.2-1.4 2.5-.2 5.1 0 7.5.5 2.4.5 4.6 1.4 6.3 2.5 1.7 1.2 2.9 2.6 3.7 4.3.4.9.7 1.8.9 2.8.1.5.2 1.1.2 1.6 0 .6.1 1.2.1 1.7.1 4.6-1.4 9.2-3.9 12.5-.6.8-1.3 1.5-2 2.2-.8.7-1.6 1.4-2.4 1.9-1.6 1.1-3.3 1.9-4.9 2.4-.9.3-1.7.4-2.5.4-.4 0-.7 0-1.1.1h-.8c-.9 0-1.8-.3-2.8-.7-1.9-.9-3.6-2.1-5-2.9-1.4-.8-2.6-1.2-3.6-1.4-1-.1-1.9 0-2.6.2-.7.2-1.4.9-1.8 2.1-.4 1.2-.5 3.1.2 5.6.4 1.2.9 2.7 1.9 4.2 1 1.5 2.4 3.2 4.4 4.7 1 .8 2.2 1.4 3.6 2 .7.3 1.4.5 2.2.8.8.2 1.6.4 2.3.5 1.5.2 3 .3 4.6.2 1.6-.1 3.2-.3 4.9-.8 2.9-.8 5.8-2 8.5-3.8 1.4-.8 2.7-1.8 3.9-2.9.6-.5 1.3-1.1 1.9-1.7.6-.6 1.2-1.3 1.8-2 4.7-5.5 7.7-12.9 8.1-20.8.1-2 0-4-.2-6-.1-1-.3-2-.5-3-.2-1.1-.5-2.1-.9-3.2-.7-2.1-1.7-4.2-3-6.1-1.3-1.9-2.9-3.7-4.6-5.1-3.5-3-7.6-4.8-11.6-5.8s-8-1.3-11.9-1c-3.9.2-7.6 1-11.2 2.2-.9.3-1.8.7-2.7 1-.8.4-1.7.8-2.5 1.3l-1.2.6-1.2.7c-.8.5-1.6 1-2.3 1.5-5.8 4.3-9.9 9.6-12.6 14.6-2.8 5-4.5 9.6-5.8 13.4-1.3 3.8-1.9 6.9-2.4 8.9-.4 2.1-.8 4-1.1 5.9-.3 1.9-.4 3.5-.6 5.1-.1.6-.1 1.1-.1 1.6v.5c-.2 2.3-.2 4.3-.2 6.1 0 1.4.1 2.6.3 3.7v1L666 248.2l-88.6-24.9-19.7 6.3v-18.3c9.4-1.8 17.6-10.1 20.1-21 3.3-14.4-4-28.4-16.3-31.2-1-.2-2-.4-3.1-.4 3.1-1.6 6-3 8.9-4.5zm106.8 604.4l-166-227.3V130.1c-1.1 0-2.3.1-3.4.1-2.2 0-4.3.2-6.4.5-2.2.3-4.3.8-6.4 1.4-15.9 4.6-27.3 16-27.3 16v18.3c-2.8-1.2-5.8-1.6-8.8-.9-8.9 2-14 12.6-11.5 23.5 2.5 10.8 11.5 17.9 20.3 16.2v33.4l-1.7-.5-24.5-7.8-84.5 23.8-89.3 127.4 88.1 114.3h46.4l-54.8-105.9 39.9-51.2 67.3 102.4L217 778.9l125-20.2 149.9-205.2 6.4-8.8 6.4-8.8 3.4-4.6v422.9h-3.4C256.4 954.3 55.1 753 55.1 504.7S256.4 55.1 504.7 55.1h3.4V130c21.3-.8 43.4-8.3 43.4-8.3v44.5c1.9-.8 3.9-1.3 5.9-1.3 1 0 1.9.1 2.9.3 8.9 2 14 12.6 11.5 23.5-2.2 9.7-9.7 16.4-17.6 16.4-.9 0-1.8-.1-2.7-.3v33.4l26.2-8.3 84.5 23.8 16.1 22.9 5 7.2 5 7.2 63.2 90.1-88.1 114.3H617l54.8-105.9-11-14.1-4.3-5.6-4.3-5.6-20.2-25.9-67.3 102.4 11.8 17 3.7 5.3 3.7 5.3 215.4 310.5-125.2-20.2zm-88-309.2c-1.6 1.5-3.2 2.9-4.8 4.3l-9-12.9 60-91.3 16.5 21.2c-1.1 2.1-2.2 4.1-3.3 6.1-16.6 29.3-38.2 53.5-59.4 72.6z" fill="#fff"/>
</svg>
