<svg xmlns="http://www.w3.org/2000/svg" viewBox="0 0 1976.25 460.98"><defs><style>.cls-1{fill:#00d7fa;}.cls-2{fill:#fff;}</style></defs><g id="Guides"><g id="Logo"><path class="cls-1" d="M441.66,272.74l22.61-15.89c6.2,10,15.2,14.5,27.33,14.5,13.27,0,22.18-5.42,22.18-12.92,0-10.31-16.85-18.43-31.61-25.76-15.8-7.86-33.17-16.5-33.17-38.94,0-24.36,20.6-40.42,46.44-40.42,19.21,0,35.1,7.94,41.47,25l-20.86,14.58c-4.19-8.38-12.31-11.79-20.17-11.79-10.57,0-18.42,6.11-18.42,13.36,0,8.38,10.65,11.26,26.8,18.86,23.31,11,38,22.87,38,44.52,0,25.67-21,42-51.08,42C468.11,299.81,451.09,290.21,441.66,272.74Z"/><path class="cls-1" d="M682.61,273.44a70.34,70.34,0,0,0,15.46,2.62l-2.27,27.59c-15.37-1-26.81-5.68-36.06-12a71.94,71.94,0,0,1-33.44,8.12c-40.16,0-73.07-32.83-73.07-72.9,0-40.42,32.91-73.42,73.16-73.42s73.25,33,73.25,73.42A72.24,72.24,0,0,1,682.61,273.44Zm-56.31-2.35a41.14,41.14,0,0,0,10-1.14c-9.16-9.69-17.81-17.9-30.47-18.77l1.49-24.27c27,2,36.84,17.9,50.55,31.17A44.22,44.22,0,0,0,671,226.65a44.61,44.61,0,1,0-44.7,44.44Z"/><path class="cls-1" d="M716.73,245v-88.7H745.2v88.61a25.85,25.85,0,1,0,51.68,0V156.28h28.46V245c0,31.87-24.36,55.09-54.3,55.09S716.73,276.85,716.73,245Z"/><path class="cls-1" d="M848.55,156.28h28.29V297H848.55Z"/><path class="cls-1" d="M974.44,297l-44.79-66.52V297H901.37l-.09-140.73H947.2c26.28,0,47.85,20.25,47.85,45.57,0,18.07-10.92,33.88-26,39.2l40,56Zm-44.87-77.35,18.16.09A18,18,0,0,0,965.88,202c0-10.05-8.64-17.73-18.15-17.73H929.57Z"/><path class="cls-1" d="M1095.61,297l-44.79-66.52V297h-28.29l-.08-140.73h45.92c26.28,0,47.84,20.25,47.84,45.57,0,18.07-10.91,33.88-26,39.2l40,56Zm-44.88-77.35,18.16.09A18,18,0,0,0,1087.05,202c0-10.05-8.64-17.73-18.16-17.73h-18.16Z"/><path class="cls-1" d="M1171.9,184.13v27.5h48.54v28.2H1171.9V268.9h56.58V297h-84.87V156.28h84.87v27.85Z"/><path class="cls-1" d="M1334.1,268.9V297h-84.86V156.28h28.29V268.9Z"/><path class="cls-2" d="M1461.56,186.22h-54.22v-28h99l-54.22,112.62h54.22v28.12h-99Z"/><path class="cls-2" d="M1515.42,228.74c0-40.42,32.91-73.42,73.16-73.42s73.25,33,73.25,73.42c0,40.07-33,72.9-73.34,72.9C1548.33,301.64,1515.42,268.81,1515.42,228.74Zm117.77-.17a44.62,44.62,0,1,0-44.7,44.44A44.79,44.79,0,0,0,1633.19,228.57Z"/><path class="cls-2" d="M1793.29,157.85v143.7H1792l-83.55-81.28v78.84h-28.29V155.58h1.4l83.38,81.11V157.85Z"/><path class="cls-2" d="M1846,186.05v27.5h48.54v28.2H1846v29.07h56.58v28.12h-84.87V158.2h84.87v27.85Z"/><path class="cls-1" d="M227.74,49.57h-1.21a180.93,180.93,0,0,0,0,361.86h1.21c99.37-.66,179.73-81.4,179.73-180.92S327.11,50.22,227.74,49.57ZM249,104.84c.82-.4,1.63-.79,2.46-1.16,6.85-3.09,14.95-4.38,23.05-4.38,15.35,0,30.7,4.63,37.54,10.35,10.46,8.75,16.64,33.5,1.07,37.77a23,23,0,0,1-6.07.86,18.85,18.85,0,0,1-15.14-7.79c.14-.5.27-1,.42-1.59.08-.33.17-.66.26-1s.2-.7.3-1.08c.23-.73.51-1.74,1-2.9a22.48,22.48,0,0,1,1.89-3.77c.2-.34.45-.64.67-1s.51-.62.76-.94l.43-.43.21-.22.23-.2.47-.41c.16-.13.33-.23.5-.36a9.63,9.63,0,0,1,1.06-.64c.19-.1.38-.17.57-.26a4.87,4.87,0,0,1,.59-.24,10.82,10.82,0,0,1,2.59-.52,10,10,0,0,1,2.68.17,6.28,6.28,0,0,1,2.24.91,3.8,3.8,0,0,1,1.33,1.55,4,4,0,0,1,.33,1c0,.17.06.39.09.59s0,.41,0,.62a7.23,7.23,0,0,1-1.39,4.47,6.94,6.94,0,0,1-.72.81,6.19,6.19,0,0,1-.86.69,6.07,6.07,0,0,1-1.76.86,5.72,5.72,0,0,1-.9.16h-.7a2.73,2.73,0,0,1-1-.25c-.69-.31-1.29-.75-1.78-1a3.49,3.49,0,0,0-1.28-.5,2.09,2.09,0,0,0-.93.09,1.08,1.08,0,0,0-.64.76,3.59,3.59,0,0,0,.08,2,5.89,5.89,0,0,0,.69,1.5A6.36,6.36,0,0,0,303,142a7.21,7.21,0,0,0,.83.17,8.1,8.1,0,0,0,3.41-.21,11.16,11.16,0,0,0,3-1.34,12.57,12.57,0,0,0,1.41-1c.23-.19.45-.39.67-.61s.45-.45.66-.7a12.46,12.46,0,0,0,2.91-7.45,12.85,12.85,0,0,0-.08-2.14c0-.36-.1-.71-.17-1.09a9.73,9.73,0,0,0-1.4-3.32,9.1,9.1,0,0,0-1.66-1.84,10.43,10.43,0,0,0-4.17-2.08,13.88,13.88,0,0,0-4.27-.36,15,15,0,0,0-4,.8c-.32.11-.64.23-1,.37l-.9.45-.45.23-.42.26c-.27.18-.56.35-.81.54a16.61,16.61,0,0,0-4.53,5.23,26.45,26.45,0,0,0-2.07,4.8c-.45,1.37-.69,2.47-.87,3.2s-.3,1.44-.39,2.11-.16,1.25-.21,1.83c0,.2,0,.38,0,.57a1.15,1.15,0,0,0,0,.19,21.58,21.58,0,0,0-.07,2.19,9.61,9.61,0,0,0,.11,1.32c0,.12,0,.24,0,.36l-4.11-5.86-31.74-9-7.06,2.25v-6.58c3.38-.63,6.3-3.61,7.21-7.54,1.18-5.16-1.44-10.17-5.85-11.19a6.77,6.77,0,0,0-1.1-.15C246.89,105.89,247.93,105.36,249,104.84Zm38.3,216.68L227.74,240V96.19l-1.21,0h0a15.72,15.72,0,0,0-2.29.18,16.92,16.92,0,0,0-2.29.5,25.53,25.53,0,0,0-9.78,5.72v6.56a5.07,5.07,0,0,0-3.14-.34c-3.18.74-5,4.51-4.13,8.44s4.13,6.43,7.27,5.8v12l-.62-.19-8.77-2.79-30.3,8.53-32,45.66,31.57,41H188.7l-19.63-38,14.29-18.35,24.11,36.7L123.41,328.78l44.8-7.26L222,248l2.29-3.14,2.29-3.14h0l1.21-1.66V391.65h-1.21a161.17,161.17,0,0,1,0-322.34h1.21V96.19a63.94,63.94,0,0,0,15.58-3v9.38h0v6.56a5.07,5.07,0,0,1,3.14-.34c3.18.74,5,4.51,4.12,8.44-.8,3.48-3.49,5.89-6.3,5.89a5.2,5.2,0,0,1-1-.09v12l9.39-3L283,140.59l5.76,8.22,1.8,2.57,1.8,2.56L315,186.25l-31.58,41H266.79l19.63-38-3.94-5.06-1.56-2-1.56-2-7.24-9.29L248,207.59l4.23,6.09,1.31,1.89,1.31,1.89,77.22,111.32ZM255.72,210.65c-.58.53-1.15,1-1.73,1.53l-3.21-4.63,21.5-32.72,5.93,7.61c-.39.73-.79,1.47-1.2,2.19A105.17,105.17,0,0,1,255.72,210.65Z"/></g></g></svg>